<?xml version="1.0" encoding="UTF-8" standalone="no"?>
<!-- Created with Inkscape (http://www.inkscape.org/) -->

<svg
   xmlns:dc="http://purl.org/dc/elements/1.1/"
   xmlns:cc="http://creativecommons.org/ns#"
   xmlns:rdf="http://www.w3.org/1999/02/22-rdf-syntax-ns#"
   xmlns:svg="http://www.w3.org/2000/svg"
   xmlns="http://www.w3.org/2000/svg"
   xmlns:sodipodi="http://sodipodi.sourceforge.net/DTD/sodipodi-0.dtd"
   xmlns:inkscape="http://www.inkscape.org/namespaces/inkscape"
   width="210mm"
   height="297mm"
   viewBox="0 0 210 297"
   version="1.1"
   id="svg8"
   inkscape:version="0.92.1 r"
   sodipodi:docname="rdcl3dlogo0.svg">
  <defs
     id="defs2">
    <inkscape:perspective
       sodipodi:type="inkscape:persp3d"
       inkscape:vp_x="0 : 148.5 : 1"
       inkscape:vp_y="0 : 1000 : 0"
       inkscape:vp_z="210 : 148.5 : 1"
       inkscape:persp3d-origin="105 : 99 : 1"
       id="perspective3680" />
    <clipPath
       clipPathUnits="userSpaceOnUse"
       id="clipPath4908">
      <path
         d="M 0,595.28 H 841.89 V 0 H 0 Z"
         id="path4906"
         inkscape:connector-curvature="0" />
    </clipPath>
    <clipPath
       clipPathUnits="userSpaceOnUse"
       id="clipPath4916">
      <path
         d="M 306.352,388.438 H 507.075 V 221.297 H 306.352 Z"
         id="path4914"
         inkscape:connector-curvature="0" />
    </clipPath>
    <clipPath
       clipPathUnits="userSpaceOnUse"
       id="clipPath4932">
      <path
         d="M 316.115,390.875 H 536.503 V 227.491 H 316.115 Z"
         id="path4930"
         inkscape:connector-curvature="0" />
    </clipPath>
  </defs>
  <sodipodi:namedview
     id="base"
     pagecolor="#ffffff"
     bordercolor="#666666"
     borderopacity="1.0"
     inkscape:pageopacity="0.0"
     inkscape:pageshadow="2"
     inkscape:zoom="0.1767767"
     inkscape:cx="739.64715"
     inkscape:cy="-420.11255"
     inkscape:document-units="mm"
     inkscape:current-layer="layer1"
     showgrid="false"
     inkscape:window-width="1918"
     inkscape:window-height="1057"
     inkscape:window-x="0"
     inkscape:window-y="21"
     inkscape:window-maximized="1" />
  <metadata
     id="metadata5">
    <rdf:RDF>
      <cc:Work
         rdf:about="">
        <dc:format>image/svg+xml</dc:format>
        <dc:type
           rdf:resource="http://purl.org/dc/dcmitype/StillImage" />
        <dc:title />
      </cc:Work>
    </rdf:RDF>
  </metadata>
  <g
     inkscape:groupmode="layer"
     id="layer3"
     inkscape:label="mesh">
    <path
       sodipodi:type="star"
       style="fill:#ffffff;fill-opacity:1;stroke:#bbbbbb;stroke-width:17.3841629;stroke-miterlimit:4;stroke-dasharray:none;stroke-opacity:1"
       id="path4787"
       sodipodi:sides="6"
       sodipodi:cx="370.43555"
       sodipodi:cy="366.59698"
       sodipodi:r1="156.6655"
       sodipodi:r2="67.910896"
       sodipodi:arg1="0.80566566"
       sodipodi:arg2="1.3292644"
       inkscape:flatsided="true"
       inkscape:rounded="0.08"
       inkscape:randomized="0"
       d="M 478.94697,479.59853 C 469.90684,488.27945 338.867,520.55992 326.82905,517.0714 314.79109,513.58288 221.31546,416.23929 218.31763,404.06986 215.3198,391.90042 252.884,262.27635 261.92413,253.59544 c 9.04012,-8.68092 140.07996,-40.96139 152.11792,-37.47287 12.03795,3.48852 105.51359,100.83211 108.51142,113.00154 2.99783,12.16944 -34.56638,141.79351 -43.6065,150.47442 z"
       inkscape:transform-center-x="11.395173"
       inkscape:transform-center-y="4.9400033"
       transform="matrix(0.2835671,-1.1149783,1.1149783,0.2835671,-412.96205,855.48461)" />
    <path
       style="fill:#ffff00;fill-opacity:1;fill-rule:evenodd;stroke:#bbbbbb;stroke-width:8.56500053;stroke-linecap:butt;stroke-linejoin:miter;stroke-miterlimit:4;stroke-dasharray:none;stroke-opacity:1"
       d="M -54.970708,456.12241 56.534087,509.25559"
       id="path4804"
       inkscape:connector-curvature="0" />
    <path
       style="fill:#ffff00;fill-opacity:1;fill-rule:evenodd;stroke:#bbbbbb;stroke-width:8.56499958;stroke-linecap:butt;stroke-linejoin:miter;stroke-miterlimit:4;stroke-dasharray:none;stroke-opacity:1"
       d="M 148.44237,509.46287 257.59331,457.4675"
       id="path4821"
       inkscape:connector-curvature="0" />
    <path
       style="fill:#ffff00;fill-opacity:1;fill-rule:evenodd;stroke:#bbbbbb;stroke-width:8.56499958;stroke-linecap:butt;stroke-linejoin:miter;stroke-miterlimit:4;stroke-dasharray:none;stroke-opacity:1"
       d="m 99.938633,589.32954 -0.74837,135.45219"
       id="path4823"
       inkscape:connector-curvature="0" />
  </g>
  <g
     inkscape:groupmode="layer"
     id="layer2"
     inkscape:label="internal">
    <path
       sodipodi:type="star"
       style="fill:#ffffff;fill-opacity:1;stroke:#bbbbbb;stroke-width:17.38442993;stroke-miterlimit:4;stroke-dasharray:none;stroke-opacity:1"
       id="path4787-9"
       sodipodi:sides="6"
       sodipodi:cx="370.43555"
       sodipodi:cy="366.59698"
       sodipodi:r1="156.6655"
       sodipodi:r2="67.910896"
       sodipodi:arg1="0.80566566"
       sodipodi:arg2="1.3292644"
       inkscape:flatsided="true"
       inkscape:rounded="0.08"
       inkscape:randomized="0"
       d="M 478.94697,479.59853 C 469.90684,488.27945 338.867,520.55992 326.82905,517.0714 314.79109,513.58288 221.31546,416.23929 218.31763,404.06986 215.3198,391.90042 252.884,262.27635 261.92413,253.59544 c 9.04012,-8.68092 140.07996,-40.96139 152.11792,-37.47287 12.03795,3.48852 105.51359,100.83211 108.51142,113.00154 2.99783,12.16944 -34.56638,141.79351 -43.6065,150.47442 z"
       inkscape:transform-center-x="6.2760914"
       inkscape:transform-center-y="2.72079"
       transform="matrix(0.15617987,-0.6140949,0.61409515,0.15617983,-183.01537,711.09896)" />
  </g>
  <g
     inkscape:label="Layer 1"
     inkscape:groupmode="layer"
     id="layer1">
    <flowRoot
       xml:space="preserve"
       id="flowRoot3759"
       style="font-style:normal;font-weight:normal;font-size:122.66666412px;line-height:25px;font-family:sans-serif;letter-spacing:0px;word-spacing:0px;fill:#000000;fill-opacity:1;stroke:none;stroke-width:1px;stroke-linecap:butt;stroke-linejoin:miter;stroke-opacity:1"
       transform="scale(0.26458333)"><flowRegion
         id="flowRegion3761"
         style="font-size:122.66666412px"><rect
           id="rect3763"
           width="719.22864"
           height="325.26913"
           x="34.345188"
           y="366.92557"
           style="font-size:122.66666412px" /></flowRegion><flowPara
         id="flowPara3765" /></flowRoot>    <g
       transform="matrix(1.8009222,0,0,-1.7503182,-655.85326,1108.8177)"
       id="g4902">
      <g
         id="g4904"
         clip-path="url(#clipPath4908)">
        <g
           id="g4910">
          <g
             id="g4912" />
          <g
             id="g4924">
            <g
               clip-path="url(#clipPath4916)"
               id="g4922"
               style="opacity:0.60000598">
              <g
                 transform="translate(457.3057,235.4326)"
                 id="g4920">
                <path
                   d="m 0,0 c 0,0 -67.64,-23.883 -88.679,-9.562 -17.311,11.784 21.144,30.998 54.706,48.909 66.833,35.666 92.133,92.846 68.499,82.501 -49.5,-21.667 -146.28,-33.667 -178.166,-20.667 -34.599,14.107 64.79,51.824 64.79,51.824 0,0 -92.79,-36.324 -62.341,-49.657 31.542,-13.813 128.717,-2.167 181.717,22.333 C 66.25,137.572 36.86,76.013 -29.973,40.347 -63.535,22.436 -101.99,5.222 -84.679,-6.562 -63.639,-20.883 0,0 0,0"
                   style="fill:#00cccc;fill-opacity:1;fill-rule:nonzero;stroke:none"
                   id="path4918"
                   inkscape:connector-curvature="0" />
              </g>
            </g>
          </g>
        </g>
        <g
           id="g4926">
          <g
             id="g4928" />
          <g
             id="g4940">
            <g
               clip-path="url(#clipPath4932)"
               id="g4938"
               style="opacity:0.60000598">
              <g
                 transform="translate(457.3057,235.4326)"
                 id="g4936">
                <path
                   d="m 0,0 c 0,0 -14.54,-5.354 -35.848,-5.152 -65.958,0.625 -37.39,18.992 19.496,49.218 62.81,33.374 131.466,136.558 73.946,105.683 -25.898,-13.901 -89.028,-53.093 -178.9,-39.401 -42.667,6.5 42.456,42.657 42.456,42.657 0,0 -99.941,-37.96 -46.742,-46.242 63.642,-9.907 139.443,7.67 175.353,28.049 36.385,20.649 -14.191,-62.434 -77,-95.807 C -84.126,8.778 -98.46,-7.945 -41.361,-7.941 -14.938,-7.939 0,0 0,0"
                   style="fill:#0099ff;fill-opacity:1;fill-rule:nonzero;stroke:none"
                   id="path4934"
                   inkscape:connector-curvature="0" />
              </g>
            </g>
          </g>
        </g>
        <g
           id="g4942"
           transform="translate(352.8857,367.7881)">
          <path
             d="m 0,0 c 0,-7.147 -5.794,-12.941 -12.941,-12.941 -7.148,0 -12.942,5.794 -12.942,12.941 0,7.147 5.794,12.942 12.942,12.942 C -5.794,12.942 0,7.147 0,0"
             style="fill:#d1d3d4;fill-opacity:1;fill-rule:nonzero;stroke:none"
             id="path4944"
             inkscape:connector-curvature="0" />
        </g>
        <g
           id="g4946"
           transform="translate(514.8857,367.7886)">
          <path
             d="m 0,0 c 0,-7.146 -5.794,-12.941 -12.941,-12.941 -7.148,0 -12.943,5.795 -12.943,12.941 0,7.147 5.795,12.942 12.943,12.942 C -5.794,12.942 0,7.147 0,0"
             style="fill:#d1d3d4;fill-opacity:1;fill-rule:nonzero;stroke:none"
             id="path4948"
             inkscape:connector-curvature="0" />
        </g>
        <g
           id="g4950"
           transform="translate(433.8857,227.4912)">
          <path
             d="m 0,0 c 0,-7.146 -5.794,-12.941 -12.941,-12.941 -7.148,0 -12.942,5.795 -12.942,12.941 0,7.146 5.794,12.941 12.942,12.941 C -5.794,12.941 0,7.146 0,0"
             style="fill:#d1d3d4;fill-opacity:1;fill-rule:nonzero;stroke:none"
             id="path4952"
             inkscape:connector-curvature="0" />
        </g>
      </g>
    </g>
    <flowRoot
       xml:space="preserve"
       id="flowRoot76"
       style="font-style:normal;font-weight:normal;font-size:40px;line-height:25px;font-family:sans-serif;letter-spacing:0px;word-spacing:0px;fill:#000000;fill-opacity:1;stroke:none;stroke-width:1px;stroke-linecap:butt;stroke-linejoin:miter;stroke-opacity:1"
       transform="matrix(0.70626936,0,0,0.48683772,-1248.224,-229.64302)"><flowRegion
         id="flowRegion78"><rect
           id="rect80"
           width="1107.8884"
           height="103.54552"
           x="1691.3994"
           y="2053.0723" /></flowRegion><flowPara
         id="flowPara82"
         style="font-style:normal;font-variant:normal;font-weight:normal;font-stretch:normal;font-size:120.32446289px;line-height:109.19898224px;font-family:Homizio;-inkscape-font-specification:Homizio;letter-spacing:12.25505257px">RDCL3D</flowPara></flowRoot>  </g>
</svg>
